<?xml version="1.0" encoding="utf-8"?>
<!-- Generator: Adobe Illustrator 24.0.1, SVG Export Plug-In . SVG Version: 6.00 Build 0)  -->
<svg version="1.1" xmlns="http://www.w3.org/2000/svg" xmlns:xlink="http://www.w3.org/1999/xlink" x="0px" y="0px"
	 viewBox="0 0 573 461" style="enable-background:new 0 0 573 461;" xml:space="preserve">
<style type="text/css">
	.st0{fill:#F7F7F7;}
	.st1{fill:#FFFFFF;}
	.st2{opacity:0.85;fill:#C7461C;enable-background:new    ;}
	.st3{opacity:0.85;fill:#006134;stroke:#006934;stroke-miterlimit:10;enable-background:new    ;}
	.st4{fill:#231815;}
	.st5{fill:none;stroke:#231815;stroke-linecap:round;stroke-linejoin:round;}
</style>
<g id="レイヤー_1">
	<title>アセット 3</title>
	<g>
		<g id="レイヤー_2_1_">
			<g id="レイヤー_1-2">
				<g id="淵">
					
						<image style="overflow:visible;opacity:0.59;enable-background:new    ;" width="573" height="461" xlink:href="EE75D5B785E3A97.png"  transform="matrix(0.7766 0 0 0.7766 67.7759 51.4893)">
					</image>
					<path class="st0" d="M148.7,189.6c-2.2,0-4.1-1.7-4.4-3.9l-1.3-10.6c-0.2-1.4,0.3-2.8,1.3-3.7l31.3-30.1h-30.8
						c-2.3,0-4.2-1.7-4.4-4l-1.6-15.5c-0.1-1.2,0.3-2.4,1.1-3.4c0.3-0.3,0.7-0.6,1.1-0.9c-1.3-0.7-2.3-2-2.4-3.5l-1.8-17.9
						c-0.2-2.4,1.5-4.6,3.9-4.8c0.1,0,0.3,0,0.4,0H212c2.4,0,4.4,2,4.4,4.4c0,0.1,0,0.3,0,0.4l-1.7,17.9c-0.1,1.5-1,2.8-2.4,3.5
						c0.4,0.2,0.9,0.6,1.2,0.9c0.8,0.9,1.2,2.2,1.1,3.4l-1.8,15.4c-0.1,1.2-0.7,2.2-1.6,3l-11.8,9.3c0.4,0.2,0.8,0.5,1.1,0.9
						c0.8,0.9,1.2,2.1,1.1,3.4l-1.4,15.3h9.2c2.4,0,4.4,2,4.4,4.4c0,0.2,0,0.4,0,0.5l-1.2,10.1c-0.3,2.2-2.1,3.9-4.4,3.9h-21.4
						c-2.4,0-4.4-1.9-4.4-4.3l-0.3-13.6h-7.3l-23.3,18.5C150.6,189.2,149.7,189.6,148.7,189.6z"/>
					<path class="st0" d="M219.4,138.3c-2.3,0-4.2-1.8-4.4-4.1l-5.7-70.8c-0.2-2.4,1.6-4.5,4-4.7c0.1,0,0.2,0,0.3,0l13.4-0.1
						c2.4,0,4.4,2,4.4,4.4c0,0,0,0,0,0.1l-0.8,58.6l16,0.1l-0.3-19.3c0-0.4,0.1-0.8,0.2-1.2c-1.5-0.7-2.4-2.2-2.4-3.8l-0.3-11.6
						c-0.1-2.4,1.9-4.5,4.3-4.5c0,0,0.1,0,0.1,0h5.1c0.7-0.5,1.6-0.8,2.5-0.8h5.8c2.4,0,4.4,2,4.4,4.4c0,0.1,0,0.3,0,0.4L264.8,97
						c-0.1,1-0.6,2-1.3,2.7c0.8,0.9,1.2,2.1,1,3.3l-3,31.2c-0.2,2.3-2.1,4-4.4,4L219.4,138.3z"/>
					<path class="st0" d="M268.8,162.3c-2.2,0-4.1-1.6-4.4-3.8l-2.9-21.8h-0.3c-2.2,0-4.1-1.6-4.4-3.8l-1.1-7.8
						c-0.3-2.4,1.4-4.6,3.8-5l-0.5-3.6c-0.3-2.4,1.4-4.6,3.8-4.9c0.2,0,0.4,0,0.5,0h8.3c2.4,0,4.3,1.9,4.4,4.3l0.1,4.2h1.4v-3.4
						c0-2.4,2-4.4,4.4-4.4h7.5c2.4,0,4.4,2,4.4,4.4c0,0.1,0,0.3,0,0.4l-0.2,3h0.3c2.4,0,4.4,2,4.3,4.5c0,0.2,0,0.3,0,0.4l-2.8,23.3
						c-0.3,2.2-2.1,3.9-4.4,3.9h-9.9c-2.4,0-4.3-1.9-4.4-4.3l-0.1-4.7c-0.1-2.4,1.9-4.5,4.3-4.5c0,0,0.1,0,0.1,0h1.9v-2.1h-6.6
						l0.4,21.1c0,2.4-1.9,4.4-4.3,4.5c0,0-0.1,0-0.1,0H268.8z"/>
					<path class="st0" d="M299.6,128.1c-2.3,0-4.3-1.8-4.4-4.2l-0.5-10.4c-0.7,0.4-1.4,0.6-2.2,0.6h-5c-2.3,0-4.2-1.7-4.4-4
						l-2.3-23.3c-1.8-0.4-3.1-1.9-3.3-3.7L276,71.5c-0.3-2.2,1.1-4.2,3.2-4.8l-0.1-1.6c-0.2-2.4,1.5-4.6,3.9-4.8c0.1,0,0.3,0,0.4,0
						h10.9c2.4,0,4.4,2,4.4,4.4c0,0.1,0,0.2,0,0.2l-0.1,1.6h10.5c1.2,0,2.3,0.5,3.2,1.3c0.1,0.1,0.2,0.2,0.2,0.3
						c0.1-0.1,0.2-0.2,0.2-0.3c0.8-0.8,1.9-1.3,3.1-1.3l16.6-0.1c2.4,0,4.4,2,4.4,4.4c0,0.2,0,0.4,0,0.5l-1.5,11.7
						c-0.3,2.2-2.1,3.9-4.4,3.9h-1.8l-1,9.8h1c2.4,0,4.4,2,4.4,4.4c0,0.2,0,0.4,0,0.5l-0.9,7.8c-0.3,2.2-2.1,3.9-4.4,3.9h-1.9
						l-1.1,10.8c-0.2,2.2-2.1,3.9-4.4,3.9H299.6z M310.3,111.5V111h-2.9v0.5H310.3z M297.5,96.9c0.3-0.1,0.6-0.1,0.9-0.1h13.5
						l-0.1-11c-0.8,0.7-1.9,1.1-2.9,1.1H298L297.5,96.9z"/>
					<path class="st0" d="M328.8,162.3c-2.2,0-4.1-1.7-4.4-3.9l-4.9-39.6c-0.3-2.4,1.4-4.6,3.8-4.9c0.2,0,0.4,0,0.5,0h10.3
						c2.4,0,4.4,1.9,4.4,4.4l0.3,28.3l5.9,0c2.4,0,4.4,2,4.4,4.4c0,0.1,0,0.2,0,0.2l-0.4,6.9c-0.1,2.3-2.1,4.2-4.4,4.2L328.8,162.3z
						 M358.2,161.5c-2.4,0-4.4-2-4.4-4.4c0,0,0,0,0,0l-0.1-46.6c0-2.4,1.9-4.4,4.4-4.4c0,0,0,0,0,0h11.3c2.4,0,4.4,2,4.4,4.4
						c0,0.2,0,0.3,0,0.5l-5.2,46.6c-0.3,2.2-2.1,3.9-4.4,3.9L358.2,161.5z"/>
					<path class="st0" d="M389.3,150.7c-1.1,0-2.1-0.4-2.9-1.1c-0.8,0.7-1.8,1.1-2.9,1.1l-5-0.1c-2.3,0-4.1-1.8-4.3-4l-3.1-34.7
						c-2.2,0-4-1.7-4.3-3.9l-1.3-11.6c-0.3-2.4,1.5-4.6,3.9-4.9c0.1,0,0.2,0,0.2,0l-0.3-3.8c-0.2-2.4,1.5-4.6,3.9-4.8
						c0.2,0,0.3,0,0.5,0l10.8,0.1c2.4,0,4.4,2,4.3,4.5c0,0,0,0,0,0l-0.1,3.9h15.3l-0.1-3.2c-0.1-2.4,1.8-4.5,4.3-4.5
						c0,0,0.1,0,0.1,0l11-0.1c2.4,0,4.4,2,4.4,4.4c0,0.1,0,0.3,0,0.4l-3.5,35c-0.2,2.2-2.1,3.9-4.3,4l-6.4,0.1c-0.3,0-0.5,0-0.8-0.1
						l-1.6,19.2c-0.2,2.3-2.1,4-4.4,4.1L389.3,150.7z M388.1,135.8c0.4-0.1,0.7-0.1,1.1-0.1h3.9l-0.6-23.8h-3.9L388.1,135.8z"/>
					<path class="st0" d="M240.4,270.2c-2.4,0-4.3-1.9-4.4-4.2l-0.9-19.1h-25.6c-2.3,0-4.2-1.7-4.4-4l-1.2-12.4
						c-0.2-2.4,1.5-4.6,3.9-4.8c0.1,0,0.3,0,0.4,0h30l0.3-0.5h-16.2c-2.4,0-4.3-1.9-4.4-4.2l-0.2-5.2c-0.3,0-0.5,0.1-0.8,0.1h-11.4
						c-2.2,0-4.1-1.7-4.4-3.9l-2.9-24.9c-0.3-2.4,1.5-4.6,3.9-4.9c0.2,0,0.3,0,0.5,0h5.4l-1-9.1c-0.3-2.4,1.5-4.6,3.9-4.9
						c0.2,0,0.3,0,0.5,0l16.9,0.1c1,0,2,0.4,2.8,1c0.8-0.7,1.8-1.1,2.9-1.1h17.9c0.9,0,1.7,0.3,2.4,0.7c0.7-0.5,1.5-0.7,2.4-0.7
						l16.6,0.1c2.4,0,4.4,2,4.4,4.4c0,0.2,0,0.3,0,0.5l-1.1,8.9h6.1c2.4,0,4.4,2,4.4,4.4c0,0.2,0,0.3,0,0.5l-2.5,24.1
						c-0.2,2.2-2.1,3.9-4.4,3.9h-11.9c-0.6,0-1.2-0.1-1.7-0.3l-0.6,6c-0.1,0.8-0.3,1.5-0.8,2.1l-1.4,2.1h13.5c2.4,0,4.4,2,4.4,4.4
						c0,0.1,0,0.3,0,0.4l-1.3,13.2c-0.2,2.3-2.1,4-4.4,4h-22.5l-1.7,19.3c-0.2,2.3-2.1,4-4.4,4L240.4,270.2z"/>
					<path class="st0" d="M293.9,270.2c-2.2,0-4.1-1.7-4.4-3.9l-1.2-9.3c-0.3-2.4,1.4-4.6,3.8-4.9c0.2,0,0.4,0,0.5,0h22.9l-0.8-10.6
						h-18.3c-2.3,0-4.2-1.7-4.4-4l-1.3-13.2c-0.1-1.1,0.2-2.1,0.8-3h-3.4c-2.4,0-4.4-2-4.4-4.4l-0.3-40.4c0-2.4,1.9-4.4,4.4-4.4
						c0,0,0,0,0,0h18.6c1.3,0,2.5,0.6,3.3,1.6c0.2,0.3,0.5,0.6,0.6,1l-0.1-1.7c-0.1-2.4,1.7-4.5,4.1-4.7c0.1,0,0.2,0,0.3,0h20
						c2.4,0,4.4,2,4.4,4.4c0,0.1,0,0.1,0,0.2l-0.6,11.7h23.4c2.4,0,4.4,2,4.4,4.4c0,0.2,0,0.4,0,0.6l-2.5,17.9
						c-0.3,2.2-2.2,3.8-4.4,3.8h-22.2l-0.4,8.3l17.9-0.1c2.4,0,4.4,2,4.4,4.4c0,0.1,0,0.3,0,0.4l-1.2,13.3c-0.2,2.3-2.1,4-4.4,4h-18
						l-0.6,10.6h21c2.4,0,4.4,2,4.4,4.4c0,0.2,0,0.4,0,0.6l-1.3,9.3c-0.3,2.2-2.2,3.8-4.4,3.8L293.9,270.2z M313.4,219.5l-0.6-8.3
						h-7.5l-1,6.4c-0.1,0.7-0.4,1.3-0.8,1.9H313.4z M311.3,184.6l-0.4-6.4l-1,6.4H311.3z"/>
					<path class="st0" d="M237.5,362.7c-2.1,0-3.9-1.5-4.3-3.5l-16.8-81.5c-0.5-2.4,1-4.7,3.4-5.2c0.3-0.1,0.6-0.1,0.9-0.1h22.1
						c2.3,0,4.3,1.8,4.4,4.2l4.4,81.5c0.1,2.4-1.7,4.5-4.2,4.7c-0.1,0-0.2,0-0.2,0L237.5,362.7z M179.6,362.7c-2.4,0-4.4-2-4.4-4.4
						c0-0.1,0-0.1,0-0.2l2.7-80.8c0.1-2.4,2-4.3,4.4-4.3h21.5c2.4,0,4.4,2,4.4,4.4c0,0.3,0,0.5-0.1,0.8L193.9,359
						c-0.4,2.1-2.2,3.6-4.3,3.6L179.6,362.7z"/>
					<path class="st0" d="M264.8,379.8c-2.2,0-4.1-1.7-4.4-3.9l-0.7-6.2c-0.3-2.4,1.5-4.6,3.9-4.8c0.2,0,0.3,0,0.5,0h18.1l1.4-33.1
						c0.1-2.4,2-4.2,4.4-4.2h8.6c2.4,0,4.4,2,4.4,4.4c0,0.2,0,0.4,0,0.6l-6.3,43.5c-0.3,2.2-2.2,3.8-4.4,3.8H264.8z M267.8,358.8
						c-0.4,0-0.9-0.1-1.3-0.2c-0.4,0.1-0.8,0.2-1.3,0.2h-6.2c-2.2,0-4-1.6-4.3-3.7l-3.4-21.7c-0.4-2.4,1.3-4.7,3.7-5
						c0.2,0,0.4-0.1,0.7-0.1h8.8c0.5,0,0.9,0.1,1.3,0.2c0.4-0.1,0.9-0.2,1.3-0.2h8.8c2.4,0,4.4,2,4.4,4.4c0,0.1,0,0.3,0,0.4
						l-1.8,21.7c-0.2,2.3-2.1,4-4.4,4H267.8z"/>
					<path class="st0" d="M341.9,361.9c-2.4,0-4.4-2-4.4-4.4c0,0,0,0,0,0L338,313h-9.8l-2.7,44.8c-0.1,2.3-2.1,4.1-4.4,4.1h-5.9
						c-2.3,0-4.2-1.8-4.4-4l-3.6-44.9H300c-2.2,0-4.1-1.7-4.4-3.9l-1.8-16.3c-0.3-2.4,1.5-4.6,3.9-4.9c0.2,0,0.3,0,0.5,0h6.3
						l-0.5-6.9c-0.2-2.4,1.6-4.5,4.1-4.7c0.1,0,0.2,0,0.3,0h17c2.4,0,4.4,2,4.4,4.4c0,0.1,0,0.2,0,0.2l-0.4,7h27.7
						c2.4,0,4.4,2,4.4,4.4c0,0.2,0,0.4,0,0.6l-9.3,65.2c-0.3,2.2-2.2,3.8-4.4,3.8H341.9z"/>
					<path class="st0" d="M374.1,317.6c-2.3,0-4.2-1.7-4.4-4l-1-10.9c-0.2-2.4,1.6-4.6,4-4.8c0.1,0,0.3,0,0.4,0l28.7,0.3l2.3-63.9
						c0.1-2.3,2-4.2,4.3-4.2l16.1-0.4c2.4,0,4.4,2,4.4,4.4c0,0.2,0,0.4,0,0.5l-9.9,79.1c-0.3,2.2-2.1,3.9-4.4,3.9L374.1,317.6z
						 M386.2,285l-13.6-0.8c-2.1-0.1-3.8-1.7-4.1-3.7l-7.3-44.4c-0.4-2.4,1.2-4.7,3.6-5.1c0.2,0,0.5-0.1,0.7-0.1h0.2l18.3,0.8
						c2.3,0.1,4.1,1.9,4.2,4.1l2.6,44.4c0.1,2.4-1.7,4.5-4.1,4.7c-0.1,0-0.2,0-0.3,0L386.2,285z"/>
					<path class="st0" d="M397.4,234.5c-2.3,0-4.3-1.8-4.4-4.2l-0.7-12.8c-0.1-2.4,1.7-4.5,4.1-4.7c0.1,0,0.1,0,0.2,0l32.5-0.7
						l1.1-36.4c-0.6,0.3-1.3,0.5-2,0.5l-38.5-0.1c-2.2,0-4.1-1.6-4.3-3.8l-2.6-19.3c-0.3-2.4,1.4-4.6,3.8-5c0.2,0,0.4,0,0.6,0h41
						c1.1,0,2.2,0.4,3.1,1.2c0.6-1.8,2.3-3.1,4.2-3.1h0.2l18.6,0.8c2.4,0.1,4.3,2.1,4.2,4.6c0,0.1,0,0.3,0,0.4l-10.5,78.8
						c-0.3,2.2-2.2,3.8-4.4,3.8H397.4z"/>
					<path class="st1" d="M243,387c-11.4,0-22.7-1.1-33.9-3.3c-9.1-1.8-18.1-4.3-26.8-7.7l-1.1-0.4c-0.7-0.3-1.5-0.6-2.2-0.9
						l-4.8-2.1l-0.2-0.1l-4.5-2.3l-0.1-0.1c-4.1-2.2-8.1-4.5-12-7.1c-7.5-5-14.7-10.6-21.4-16.7c-6-5.4-11.9-11-17.5-16.5l-1.7-1.6
						c-1.8-1.7-1.9-4.4-0.2-6.2c1.6-1.7,4.1-1.9,5.9-0.5l1.8,1.4c6.2,4.7,12.6,9.6,19.1,14.2c6.8,4.9,14,9.3,21.5,13.1
						c3.7,1.9,7.4,3.5,11.2,5l4.3,1.6l4.4,1.4c0.6,0.2,1.2,0.3,1.8,0.5l1.1,0.3c7.9,2,16,3.3,24.2,3.9c3.8,0.3,7.7,0.5,11.6,0.5
						c12.4,0,24.7-1.5,36.7-4.4c15.7-3.8,30.8-9.7,44.8-17.7c13.9-7.8,26.7-17.4,38.2-28.4c11.3-11.1,21.4-23.5,29.8-36.9
						c8.6-13.6,16.1-27.9,22.2-42.7l2.3-5.6l2.2-5.7c1.4-3.7,2.8-7.7,4.2-11.6c0.4-1.2,0.9-2.5,1.3-3.9l-19.1-5.1
						c-2.3-0.6-3.7-3-3.1-5.4c0.2-0.7,0.6-1.4,1.1-2l68.5-68.5c1.7-1.7,4.5-1.7,6.2,0c0.5,0.5,0.9,1.2,1.1,2l25,93.6
						c0.6,2.3-0.7,4.8-3.1,5.4c-0.8,0.2-1.6,0.2-2.4,0l-20.4-5.4c-1.6,3.6-3.3,7-4.9,10.4c-2,4.2-4.1,8.4-6.2,12.4L445,250l-3.4,6.1
						c-9.2,16.5-19.9,32.2-31.8,46.8c-12.1,14.9-25.8,28.3-41,39.9c-15.2,11.6-31.7,21.1-49.3,28.4c-17.4,7.3-35.8,12.1-54.5,14.4
						C257.6,386.6,250.3,387,243,387z"/>
					<path class="st0" d="M103.7,321.3c-2,0-3.7-1.3-4.3-3.3l-25-93.6c-0.6-2.3,0.8-4.8,3.1-5.4c0.4-0.1,0.8-0.2,1.2-0.2
						c0.4,0,0.8,0.1,1.1,0.2l20.4,5.5c1.6-3.6,3.3-7,4.9-10.4c2-4.2,4.1-8.3,6.2-12.4l3.3-6.3l3.4-6.1c9.2-16.5,19.9-32.2,31.8-46.8
						c12.1-14.9,25.8-28.3,41-39.9c15.2-11.6,31.7-21.1,49.3-28.4c17.4-7.3,35.8-12.1,54.5-14.4c7.3-0.9,14.6-1.3,21.9-1.3
						c11.4,0,22.7,1.1,33.9,3.3c9.1,1.8,18.1,4.3,26.8,7.7l1.1,0.4c0.7,0.3,1.5,0.6,2.2,0.9l4.8,2.1l0.2,0.1l4.7,2.3
						c4.1,2.2,8.1,4.5,12,7.1c7.5,5,14.6,10.6,21.3,16.7c6,5.4,11.9,11,17.5,16.5l1.7,1.7c1.7,1.7,1.8,4.5,0.1,6.2
						c-1.5,1.6-4,1.8-5.8,0.4l-1.8-1.4c-6.2-4.7-12.6-9.6-19.1-14.1c-6.8-4.9-14-9.3-21.5-13.1c-3.9-2-7.8-3.7-11.2-5l-4.3-1.6
						l-4.4-1.4c-0.6-0.2-1.2-0.3-1.8-0.5l-1.1-0.3c-7.9-2-16-3.3-24.1-4c-3.8-0.3-7.7-0.5-11.6-0.5c-12.4,0-24.7,1.5-36.7,4.4
						c-15.7,3.8-30.8,9.7-44.8,17.7c-13.9,7.8-26.7,17.4-38.2,28.4c-11.3,11.1-21.4,23.5-29.8,36.9c-8.6,13.6-16.1,27.9-22.2,42.7
						l-2.3,5.6l-2.2,5.7c-1.4,3.8-2.8,7.7-4.2,11.6c-0.4,1.2-0.9,2.5-1.3,3.9l19.1,5.1c2.3,0.6,3.7,3,3.1,5.4
						c-0.2,0.7-0.6,1.4-1.1,2L106.8,320C106,320.8,104.8,321.3,103.7,321.3z"/>
					<path class="st0" d="M111.7,280.9c-2.2,0-4.1-1.6-4.4-3.8l-1.4-10c-0.2-1.5,0.4-2.9,1.5-3.9l31.8-27.9H107
						c-2.2,0-4.1-1.7-4.4-3.9l-1.6-14.8c-0.1-1.2,0.3-2.5,1.1-3.4c0.5-0.5,1.1-1,1.8-1.2c-2.1-0.1-3.9-1.8-4.1-3.9l-2-17.9
						c-0.3-2.4,1.5-4.6,3.9-4.9c0.2,0,0.3,0,0.5,0h77.3c2.4,0,4.4,2,4.4,4.4c0,0.2,0,0.3,0,0.5l-1.9,17.9c-0.2,2.1-1.9,3.7-3.9,3.9
						c0.7,0.3,1.4,0.7,1.9,1.3c0.8,0.9,1.2,2.2,1.1,3.5l-1.9,15c-0.2,1.2-0.8,2.3-1.8,3l-12.3,8.9c0.4,0.2,0.7,0.5,1,0.8
						c0.8,0.9,1.2,2.1,1.1,3.4l-1.5,14.5h10c2.4,0,4.4,2,4.4,4.4c0,0.2,0,0.4,0,0.6l-1.3,9.3c-0.3,2.2-2.2,3.8-4.4,3.8h-22.8
						c-2.4,0-4.3-1.9-4.4-4.3l-0.3-13.6h-8.4l-24.1,17.6C113.5,280.6,112.6,280.9,111.7,280.9z"/>
					<polygon class="st1" points="362.6,360.2 380.7,360.9 380.6,362 394.3,362 391,391.4 377.3,391.4 377.3,391.4 366.1,391.4 
											"/>
					<rect x="352.1" y="355.1" class="st1" width="17.6" height="14"/>
					<polygon class="st1" points="351.9,362.2 369.8,362.2 368,391.4 354.2,391.4 					"/>
					<polygon class="st1" points="447,391.1 445.1,378.6 441.6,378.4 439.7,366.9 440.9,360.9 438.9,360.9 436.6,343.7 439.8,343.7 
						438.6,336.3 458.4,336.3 458.4,336.7 495.1,336.7 492.7,352.2 492.7,352.2 491.4,360.2 489.9,360.2 495.5,370.2 490.2,370.2 
						487.7,391 475.9,391 475.8,389.9 467.7,389.9 467.7,391 459.2,391 459.2,391.1 					"/>
					<polygon class="st1" points="396.2,391.7 394.1,378.9 397.4,378.9 396.8,374.4 394.2,374.4 392.2,361.1 392.9,361.1 
						389.9,338.5 403.8,338.5 403.6,335.5 416.3,335.5 416.3,335.3 434.1,335.3 433.8,338.5 446.5,338.5 443.7,361.1 444.2,361.1 
						442.4,374.4 439.6,374.4 439.1,378.9 442.7,378.9 441,391.7 					"/>
				</g>
				<path class="st2" d="M481,222.2l-25-93.6L387.4,197l23.6,6.3c-0.9,2.8-1.8,5.6-2.8,8.4c-1.4,3.9-2.8,7.9-4.2,11.8l-2.2,5.7
					l-2.3,5.7c-6.3,15.1-13.8,29.6-22.6,43.4c-8.7,13.7-18.9,26.3-30.5,37.7c-11.7,11.3-24.9,21.1-39.1,29.1
					c-14.4,8.1-29.9,14.2-45.9,18.1c-16.3,4-33,5.3-49.7,4.1c-8.4-0.6-16.8-2-25-4.1c-1-0.3-2-0.5-3.1-0.8l-3-0.9l-1.5-0.5l-1.5-0.5
					l-3-1.1c-3.9-1.6-7.9-3.2-11.6-5.2c-7.7-4-15-8.5-22.1-13.5c-7.1-5-14.1-10.3-21-15.6c6.3,6.1,12.5,12.2,19.1,18
					c6.6,6,13.5,11.4,20.9,16.4c3.7,2.5,7.6,4.8,11.6,6.9l3,1.5l1.6,0.8l1.6,0.7l3.1,1.4c1,0.4,2.1,0.8,3.2,1.2
					c8.5,3.2,17.2,5.7,26.1,7.4c18,3.5,36.4,4.1,54.6,1.9c18.3-2.2,36.3-7,53.4-14.1c17.3-7.2,33.5-16.5,48.4-27.9
					c14.9-11.5,28.4-24.6,40.3-39.2c11.8-14.5,22.3-29.9,31.4-46.2l3.4-6.1l3.2-6.2c2.1-4.1,4.1-8.1,6.1-12.3
					c2.2-4.5,4.3-9.1,6.4-13.7L481,222.2z"/>
				<path class="st3" d="M420.6,102.3c-6.6-6-13.5-11.4-20.9-16.4c-3.7-2.5-7.6-4.8-11.6-6.9l-3-1.5l-1.5-0.8l-1.6-0.7l-3.1-1.4
					c-1-0.4-2.1-0.8-3.2-1.2c-8.5-3.2-17.2-5.7-26.1-7.4c-18-3.5-36.4-4.1-54.6-1.9c-18.4,2.2-36.3,7-53.4,14.1
					c-17.3,7.2-33.5,16.5-48.4,27.9c-14.9,11.5-28.4,24.6-40.3,39.2c-11.8,14.5-22.3,29.9-31.4,46.2l-3.4,6.1l-3.2,6.2
					c-2.1,4.1-4.2,8.1-6.1,12.3c-2.2,4.5-4.3,9.1-6.4,13.7l-24-6.4l25,93.6l68.5-68.5l-23.6-6.3c0.9-2.8,1.8-5.6,2.8-8.4
					c1.4-3.9,2.8-7.9,4.2-11.8l2.2-5.7l2.3-5.7c6.2-15.1,13.8-29.6,22.5-43.4c8.7-13.7,18.9-26.3,30.5-37.7
					c11.7-11.3,24.9-21.1,39.1-29.1c14.4-8.1,29.9-14.2,45.9-18.1c16.3-4,33-5.3,49.7-4.1c8.4,0.6,16.8,2,24.9,4.1
					c1,0.3,2,0.5,3.1,0.8l3,0.9l1.5,0.5L382,85l3,1.1c3.9,1.6,7.9,3.2,11.6,5.2c7.7,4,15.1,8.5,22.1,13.5c7.1,5,14.1,10.4,21,15.7
					C433.4,114.3,427.2,108.2,420.6,102.3z"/>
				<path class="st4" d="M438.9,364.2h-41.2l-2.8-21.3h13.6l-0.2-3h8.6l-0.2,3h4.4l-0.2-3.2h8.3l-0.3,3.2h12.5L438.9,364.2z
					 M438.6,370H398l-0.7-4.5h41.8L438.6,370z M437.1,387.3h-37.2l-0.6-4h8.8l-0.1-2.6h-6l-1.1-9.4h34.6l-0.9,9.4h-5.4l-0.2,2.6h8.8
					L437.1,387.3z M409.2,350.4h-4.9l0.1,2.9h5.1L409.2,350.4z M409.7,356.8h-5.3l0.2,2.6h5.4L409.7,356.8z M428.9,375.1h-21.2v1.8
					h21.2V375.1z M422.3,380.7h-7.6l-0.1,2.6h7.7L422.3,380.7z M421.6,356.8h-5.3l-0.1,2.6h5.5L421.6,356.8z M421.4,350.4h-4.9
					l-0.1,2.9h5.1L421.4,350.4z M427.8,356.8l-0.3,2.6h4.8l0.2-2.6H427.8z M428.3,350.4l-0.3,2.9h4.6l0.1-2.9H428.3z"/>
				<path class="st4" d="M477.9,347.8l-1.8,2h12.6l-1,5.9h-5.2l5.5,10h-4.8l-1.9-2.2l-0.4,4.7h-17.3l-0.3-4.8L461,366h-3.4l0.2,4.3
					l-3.3-4.1l0.3,20.5h-3.9l-2.7-17.3l-2.2,8.3l-1.7-10.8l2-10.4v-0.1h-3.5l-1.1-8.4h3.3l-1.1-7.4H454l0.1,7.4h3.2l0.3,8.4h-3.3
					l2.9,4.4l0.2,2.3l5.2-7.4h-3.7l-0.3-5.9h8.1l1.4-2h-9.6l-0.4-6.7H490l-1,6.7L477.9,347.8z M480.1,374H464l-0.5,12.6h-3.8
					l-1.2-17h27.4l-2.1,17.1h-3.5L480.1,374z M465.2,385.4l-0.4-10.1h14.5l-0.8,10.1H465.2z M476.8,361.9h-8.9v2.8h8.9V361.9z
					 M470.5,355.7l-1.8,1.9h7.7l-1.6-1.9H470.5z M468.7,382.2h6.9v-3.8h-6.9V382.2z"/>
				<path class="st4" d="M210.2,113.6h-67.1l-1.8-17.9H212L210.2,113.6z M208.4,136.8l-20.9,16.5l9.6,0.1l-1.8,20.1h14l-1.3,10.1
					h-21.4l-0.3-17.9h-13.1l-24.5,19.5l-1.3-10.6l39.2-37.6h-41.7l-1.6-15.5h66.9L208.4,136.8z"/>
				<path class="st4" d="M177.6,207.6h-73.4l-2-17.9h77.3L177.6,207.6z M174.7,231.1l-22.3,16.1l10.3,0.1l-1.9,19.3h14.8l-1.3,9.3
					h-22.9l-0.4-17.9H137l-25.3,18.4l-1.4-10l40.5-35.6H107l-1.6-14.8h71.2L174.7,231.1z"/>
				<path class="st4" d="M257.1,133.8l-37.7,0.1l-5.7-70.8l13.3-0.1l-0.8,63l24.9,0.2l-0.3-23.8l9.4,0.2L257.1,133.8z M253.5,97.3
					h-5l-0.3-11.6h5.9L253.5,97.3z M260.4,96.5h-5.2l0.6-11.6h5.8L260.4,96.5z"/>
				<path class="st4" d="M291.3,147.8h-10l-0.1-4.7h6.3l-0.1-10.9H272l0.4,25.6h-3.6l-3.4-25.6h-4.2l-1.1-7.8l4.4,0.1l-1.1-8.6h8.3
					l0.2,8.5h10.1v-7.8h7.5l-0.7,7.8h5.1L291.3,147.8z"/>
				<path class="st4" d="M308.9,82.6h-15.1l-1.3,27.2h-5l-2.6-27.2h-3l-1.6-11.6h3.7l-0.7-6.2h10.9l-0.3,6.2h15.1L308.9,82.6z
					 M331.1,82.6h-5.8l-1.9,18.6h5.9l-0.9,7.8h-5.9l-1.6,14.8h-21.4l-1.2-22.5h17.9l-0.1-19.8l-0.2-10.5l16.6-0.1L331.1,82.6z
					 M314.7,106.6h-11.6L303,116h11.8L314.7,106.6z"/>
				<path class="st4" d="M344.3,157.9h-15.5l-4.9-39.6h10.3l0.4,32.6l10.2,0.1L344.3,157.9z M364.3,157.1h-6.1l-0.1-46.6h11.3
					L364.3,157.1z"/>
				<path class="st4" d="M402.8,146.2l-13.4,0.1l-0.1-6.3h8.5l-0.9-32.6h-12.4l-0.9,38.8l-4.9-0.1l-3.4-38.8h-4l-1.3-11.6h4.6
					l-0.7-8.5l10.7,0.1l-0.2,8.4h22.5L402.8,146.2z M415.8,122.9l-6.3,0.1l-1.2-35l10.9-0.1L415.8,122.9z"/>
				<path class="st4" d="M273.1,172.8l-1.7,13.9h11.1l-2.5,24.1h-11.9l-0.1-9.3h-51.2l0.1,10.1h-11.4l-2.9-24.9h10.3l-1.6-14
					l16.9,0.1l0.3,13.9h6.2l-0.8-14h17.9l-1,14h5.7l0.1-14L273.1,172.8z M240.7,230.1l5.9-9.3h-24.2l-0.6-14.8h41.1l-1.3,14.3
					l-6.2,9h21.9l-1.3,13.2h-26.6l-2.1,23.3h-6.9l-1.1-23.3h-29.8l-1.2-12.4H240.7z"/>
				<path class="st4" d="M359.7,206.8h-26.4l-0.9,17.1l22.5-0.1l-1.1,13.3h-22.2l-1.1,19.4h25.6l-1.3,9.3h-61l-1.2-9.3h27.6
					l-1.4-19.4h-22.4l-1.3-13.2h22.7l-1.2-17.1h-15.4l-1.6,10.1h-11.6l-0.3-40.4h18.6l-1.9,12.4H316l-1-16.3h20l-0.8,16.3h28
					L359.7,206.8z"/>
				<path class="st4" d="M189.6,358.3h-10.1l2.7-80.8h21.5L189.6,358.3z M237.5,358.3l-16.8-81.5h22.1l4.4,81.5H237.5z"/>
				<path class="st4" d="M259.1,354.4l-3.4-21.7h8.8l0.7,21.7H259.1z M290.4,375.4h-25.6l-0.7-6.2h22.4l1.6-37.3h8.6L290.4,375.4z
					 M274.3,354.4h-6.4l-0.6-21.7h8.8L274.3,354.4z"/>
				<path class="st4" d="M347.8,357.5h-5.9l0.5-48.9H324l-3,48.9h-5.9l-4-48.9H300l-1.8-16.3h11.1l-0.9-11.6h17l-0.7,11.6h32.4
					L347.8,357.5z"/>
				<path class="st4" d="M372.8,279.9l-7.3-44.4l18.3,0.8l2.6,44.4L372.8,279.9z M414.6,313.2h-40.6l-1-10.9l33,0.4l2.5-68.2l16-0.4
					L414.6,313.2z"/>
				<path class="st4" d="M389.8,171.8l-2.6-19.3h41l0.1,19.4L389.8,171.8z M443.5,230.1h-46.1l-0.7-12.8l36.7-0.8l1.9-65.9l18.6,0.8
					L443.5,230.1z"/>
				<polygon class="st4" points="358.3,387 363.9,387 365.1,366.6 356.7,366.6 				"/>
				<rect x="356.5" y="359.5" class="st4" width="8.8" height="5.2"/>
				<polygon class="st4" points="388.1,366.4 380.9,366.4 376.1,366.4 376.1,365.1 367.5,364.8 370,387 375.3,387 375.9,371 
					381.1,371 381.6,387 387.1,387 389.4,366.4 				"/>
			</g>
		</g>
	</g>
</g>
<g id="カットライン">
	<g>
		<g>
			<g>
				<path class="st5" d="M63.8,232.1c0.6,3.6,1.8,7.9,3.3,13.2c1.3,4.5,2.7,9.6,4.3,15.8c0.1,0.3,0.2,0.6,0.2,0.9
					c3,9.7,5.7,20.9,8.4,31.7c7.1,29.3,10,39.6,19.1,44.7c3.2,1.8,6.7,2.5,10.2,2.1c7.7,12.7,26,28.7,46.8,40.8
					c20.4,11.9,52.9,25.9,91.4,24.9c33.2-0.3,65-7.8,94.5-22.3l1,12.4c0.6,8.1,7.4,14.3,15.5,14.3c0,0,0,0,0.1,0l10.7,0
					c0.4,0,0.8,0,1.2,0l10.3,0c0.3,0,0.5,0,0.8,0h13.7c0.6,0,2.9,0.1,3.5,0.1c1.1,0.2-1.1,0,0,0l46.5,0.2c1.6,0,3.1-0.2,4.5-0.7
					c0.5,0,1,0.1,1.5,0.1h12.2c0.6,0,1.2,0,1.8-0.1h6.7c1.4,0,2.7-0.2,4-0.5c1.3,0.4,2.7,0.6,4.2,0.6H492c7.9,0,14.5-5.9,15.4-13.7
					l1.2-9.9c1.8-1.3,3.4-2.9,4.6-4.9c2.8-4.7,2.9-10.6,0.2-15.4l-1.8-3.3l0.5-2.9c0.2-0.6,0.3-1.2,0.4-1.8l2.4-15.5
					c0.7-4.5-0.6-9-3.6-12.5c-3-3.4-7.3-5.4-11.8-5.4h-32.9c-1.2-0.3-2.5-0.5-3.9-0.5h-19c-1.7-0.6-3.5-0.9-5.3-0.9h-1.3
					c2.8-6.1,3.5-14.1,4.7-27.1c0-0.3,0.1-0.6,0.1-0.9c11.2-16,21.4-33.6,30.4-52.4c3.3,0.9,6.1,1.6,8.7,2c9.6,1.5,15.3-2,18.5-5.3
					c8.7-9,4.9-21.5,1.1-33.6l-5-18.6c-6.5-24.4-14.5-54.3-16-59.7c-2.5-10.5-10.1-13.7-13.2-14.6c-2.3-0.6-4.5-0.8-6.6-0.6
					c-3.9-6.1-10.3-11.7-16.7-17.1c0.1-0.6,0.1-1.2,0.2-1.8c0-0.1,0-0.2,0-0.3c0.8-7.5-2.8-14.4-9.6-18.5
					c-5.9-3.6-13.8-4.8-21.1-3.6C380.4,51.5,338.5,43,296.5,47.9c-5.8-0.5-11.6,0.4-16.3,2.6c-10.3,2-20.4,4.9-30.4,8.4
					c-1.5-3.2-3.9-6.1-7.1-8.2c-9.3-6-26.2-6.1-35.6-0.1c-6.5,4.2-9.9,11.4-8.8,18.7c0.1,0.7,0.2,1.3,0.4,2c0.2,1.5,0.4,4.5,0.5,7.8
					c-0.4,0-0.9,0-1.3,0c-4.9,0.1-10.4,0.2-16.8,0.2c-0.3,0-0.6,0-0.8,0c-7.6,0.3-13.9,0.1-19.5-0.1c-12.3-0.5-23.8-0.9-31.2,8.9
					c-6.8,9-4.5,20.6-0.4,33.6c-2,9.1-2.8,19.4,2.6,27.7c-5.5,7.4-10.8,15.2-15.9,23.4c-8.4-0.4-17,0.2-23.4,7.4
					c-6.7,7.6-6.4,17.8-4.8,27.5c-4.6-0.7-12.7-1.1-19,5.1C64.1,217.6,62.5,224,63.8,232.1z"/>
			</g>
		</g>
	</g>
</g>
</svg>
